<svg width="64" height="64" viewBox="0 0 64 64" fill="none" xmlns="http://www.w3.org/2000/svg">
<circle cx="32" cy="32" r="32" fill="#F7EBF9"/>
<path d="M41.1429 32.5714C41.1429 32.4501 41.0947 32.3339 41.009 32.2481C40.9232 32.1624 40.807 32.1142 40.6857 32.1142H23.3143C23.193 32.1142 23.0768 32.1624 22.991 32.2481C22.9053 32.3339 22.8571 32.4501 22.8571 32.5714V41.2571H41.1429V32.5714ZM32 38.5142C31.515 38.5142 31.0499 38.3216 30.707 37.9787C30.3641 37.6357 30.1714 37.1706 30.1714 36.6857C30.1714 36.2007 30.3641 35.7356 30.707 35.3927C31.0499 35.0497 31.515 34.8571 32 34.8571V35.7714C31.8192 35.7714 31.6424 35.825 31.492 35.9255C31.3417 36.0259 31.2245 36.1687 31.1553 36.3358C31.0861 36.5028 31.068 36.6867 31.1033 36.864C31.1386 37.0414 31.2256 37.2043 31.3535 37.3322C31.4814 37.46 31.6443 37.5471 31.8216 37.5824C31.999 37.6177 32.1828 37.5995 32.3499 37.5303C32.5169 37.4611 32.6597 37.344 32.7602 37.1936C32.8607 37.0433 32.9143 36.8665 32.9143 36.6857H33.8286C33.8286 37.1706 33.6359 37.6357 33.293 37.9787C32.9501 38.3216 32.485 38.5142 32 38.5142V38.5142Z" fill="#B84DC5"/>
<path d="M32.1234 22.9532C32.0429 22.9775 31.957 22.9775 31.8766 22.9532L28.1966 21.9017L27.9451 23.8857H36.0548L35.8034 21.9017L32.1234 22.9532Z" fill="#B84DC5"/>
<path d="M21.1109 43.0857C21.0576 42.9391 21.0298 42.7845 21.0286 42.6286V42.1714C21.0293 41.9292 21.1258 41.697 21.2972 41.5257C21.4685 41.3544 21.7006 41.2579 21.9429 41.2571V39.9314C21.6091 39.9997 21.2949 40.1416 21.0231 40.347C20.7513 40.5523 20.5289 40.8157 20.372 41.1181C20.2151 41.4204 20.1278 41.754 20.1164 42.0945C20.1051 42.4349 20.1699 42.7736 20.3063 43.0857H21.1109Z" fill="#B84DC5"/>
<path d="M19.2 44H44.8V44.9143H19.2V44Z" fill="#B84DC5"/>
<path d="M42.9714 42.1714V42.6286C42.9702 42.7845 42.9424 42.9391 42.8891 43.0857H43.6937C43.8189 42.7971 43.8842 42.486 43.8857 42.1714C43.8844 41.6449 43.7019 41.1348 43.3689 40.7269C43.0359 40.319 42.5728 40.0381 42.0571 39.9314V41.2571C42.2994 41.2579 42.5315 41.3544 42.7028 41.5257C42.8741 41.697 42.9707 41.9292 42.9714 42.1714Z" fill="#B84DC5"/>
<path d="M42.9714 36.2285C42.9706 35.945 42.8824 35.6687 42.7188 35.4372C42.5552 35.2056 42.3241 35.0302 42.0571 34.9348V39.008C42.3739 39.0534 42.682 39.1458 42.9714 39.2823V36.2285Z" fill="#B84DC5"/>
<path d="M21.9428 34.9348C21.6759 35.0302 21.4448 35.2056 21.2812 35.4372C21.1175 35.6687 21.0293 35.945 21.0285 36.2285V39.2823C21.318 39.1458 21.6261 39.0534 21.9428 39.008V34.9348Z" fill="#B84DC5"/>
<path d="M21.9428 42.6285C21.9428 42.7497 21.991 42.866 22.0767 42.9517C22.1625 43.0375 22.2787 43.0856 22.4 43.0856H41.6C41.7212 43.0856 41.8375 43.0375 41.9232 42.9517C42.009 42.866 42.0571 42.7497 42.0571 42.6285V42.1714H21.9428V42.6285Z" fill="#B84DC5"/>
<path d="M29.4263 31.2H34.5691C34.6892 31.1112 34.8023 31.0134 34.9074 30.9074C35.2908 30.5266 35.5948 30.0736 35.8019 29.5745C36.0091 29.0755 36.1153 28.5403 36.1143 28V27.0857C36.3568 27.0857 36.5893 26.9894 36.7608 26.8179C36.9322 26.6464 37.0286 26.4139 37.0286 26.1714C37.0286 25.9289 36.9322 25.6964 36.7608 25.5249C36.5893 25.3534 36.3568 25.2571 36.1143 25.2571V24.8H27.8857V25.2571C27.6432 25.2571 27.4107 25.3534 27.2392 25.5249C27.0677 25.6964 26.9714 25.9289 26.9714 26.1714C26.9714 26.4139 27.0677 26.6464 27.2392 26.8179C27.4107 26.9894 27.6432 27.0857 27.8857 27.0857V28C27.8885 28.6143 28.0282 29.2204 28.2947 29.7739C28.5612 30.3275 28.9477 30.8147 29.4263 31.2V31.2ZM33.3714 26.6285C33.3714 26.5073 33.4196 26.391 33.5053 26.3053C33.591 26.2196 33.7073 26.1714 33.8286 26.1714C33.9498 26.1714 34.0661 26.2196 34.1518 26.3053C34.2375 26.391 34.2857 26.5073 34.2857 26.6285V27.5428C34.2857 27.6641 34.2375 27.7803 34.1518 27.8661C34.0661 27.9518 33.9498 28 33.8286 28C33.7073 28 33.591 27.9518 33.5053 27.8661C33.4196 27.7803 33.3714 27.6641 33.3714 27.5428V26.6285ZM29.7143 26.6285C29.7143 26.5073 29.7624 26.391 29.8482 26.3053C29.9339 26.2196 30.0502 26.1714 30.1714 26.1714C30.2927 26.1714 30.4089 26.2196 30.4947 26.3053C30.5804 26.391 30.6286 26.5073 30.6286 26.6285V27.5428C30.6286 27.6641 30.5804 27.7803 30.4947 27.8661C30.4089 27.9518 30.2927 28 30.1714 28C30.0502 28 29.9339 27.9518 29.8482 27.8661C29.7624 27.7803 29.7143 27.6641 29.7143 27.5428V26.6285ZM30.6286 29.3714C30.6286 29.4852 31.115 29.8285 32 29.8285C32.885 29.8285 33.3714 29.4852 33.3714 29.3714H34.2857C34.2857 30.1531 33.3033 30.7428 32 30.7428C30.6967 30.7428 29.7143 30.1531 29.7143 29.3714H30.6286Z" fill="#B84DC5"/>
<path d="M36.5714 20.9142V24.3428H37.4857V20.6857L32 18.4L26.5143 20.6857L32 22.0571L36.5714 20.9142Z" fill="#B84DC5"/>
</svg>
