<svg width="64" height="64" viewBox="0 0 64 64" fill="none" xmlns="http://www.w3.org/2000/svg">
<circle cx="32" cy="32" r="32" fill="#FFEFF3"/>
<g clip-path="url(#clip0_1_145)">
<path d="M36.0776 40.1614C37.2119 40.1614 38.1314 39.2419 38.1314 38.1077V29.7386C38.1314 28.6044 37.2119 27.6849 36.0776 27.6849H21.6288C20.4945 27.6849 19.575 28.6044 19.575 29.7386V38.1077C19.575 39.2419 20.4945 40.1614 21.6288 40.1614H21.8231C22.0008 40.1614 22.1351 40.3222 22.1037 40.497L21.5977 43.3067C21.5596 43.518 21.8136 43.655 21.9693 43.5072L25.3013 40.3443C25.425 40.2268 25.5891 40.1614 25.7596 40.1614H38.8197H38.8199H36.0776V40.1614Z" fill="#FFA1BC"/>
<path d="M36.0776 27.6849H21.6288C20.4945 27.6849 19.575 28.6044 19.575 29.7386V38.1077C19.575 39.2419 20.4945 40.1614 21.6288 40.1614H21.8611C21.9572 40.1614 22.0494 40.1998 22.1172 40.268L22.3146 40.4667H24.9698L25.1006 40.3547C25.2463 40.2299 25.4317 40.1614 25.6235 40.1614H36.0776C37.2119 40.1614 38.1314 39.2419 38.1314 38.1077V29.7386C38.1314 28.6044 37.2119 27.6849 36.0776 27.6849V27.6849Z" fill="#F9CDD9"/>
<path d="M21.823 40.1614C22.0007 40.1614 22.1351 40.3221 22.1036 40.497L21.5976 43.3066C21.5596 43.5179 21.8136 43.655 21.9693 43.5071L25.3013 40.3442C25.425 40.2268 25.589 40.1614 25.7595 40.1613H25.7596H21.823V40.1614Z" fill="#F9CDD9"/>
<path d="M38.8196 27.6849H35.6398C36.774 27.6849 37.6935 28.6044 37.6935 29.7386V38.1077C37.6935 39.2419 36.774 40.1614 35.6398 40.1614H38.8196C39.9538 40.1614 40.8733 39.2419 40.8733 38.1077V29.7386C40.8733 28.6044 39.9539 27.6849 38.8196 27.6849Z" fill="#F9CDD9"/>
<path d="M39.6002 32.9081C40.7345 32.9081 41.654 31.9886 41.654 30.8543V22.4853C41.654 21.351 40.7345 20.4315 39.6002 20.4315H25.1805C24.0462 20.4315 23.1267 21.351 23.1267 22.4853V30.8543C23.1267 31.9886 24.0462 32.9081 25.1805 32.9081H25.3748C25.5525 32.9081 25.6868 33.0688 25.6554 33.2437L25.1494 36.0533C25.1113 36.2646 25.3653 36.4017 25.521 36.2538L28.853 33.0909C28.9767 32.9735 29.1408 32.908 29.3113 32.908H39.6002V32.9081Z" fill="#F65D88"/>
<path d="M42.3712 20.4314H39.2055C40.3398 20.4314 41.2593 21.3509 41.2593 22.4852V30.8542C41.2593 31.9885 40.3398 32.908 39.2055 32.908H42.3712C43.5055 32.908 44.425 31.9885 44.425 30.8542V22.4852C44.425 21.3509 43.5055 20.4314 42.3712 20.4314V20.4314Z" fill="#F65D88"/>
<path d="M25.6553 33.2437L25.1493 36.0534C25.1112 36.2647 25.3652 36.4017 25.5209 36.2539L28.8529 33.0909C28.9766 32.9735 29.1407 32.908 29.3112 32.908H25.3748C25.5524 32.9081 25.6868 33.0688 25.6553 33.2437V33.2437Z" fill="#F65D88"/>
<path d="M41.1315 23.3758H26.6202C26.4131 23.3758 26.2452 23.5437 26.2452 23.7508C26.2452 23.958 26.4131 24.1258 26.6202 24.1258H41.1315C41.3387 24.1258 41.5065 23.958 41.5065 23.7508C41.5065 23.5437 41.3386 23.3758 41.1315 23.3758Z" fill="#FFEFF3"/>
<path d="M41.1315 26.2947H26.6202C26.4131 26.2947 26.2452 26.4626 26.2452 26.6697C26.2452 26.8769 26.4131 27.0447 26.6202 27.0447H41.1315C41.3387 27.0447 41.5065 26.8769 41.5065 26.6697C41.5065 26.4626 41.3386 26.2947 41.1315 26.2947Z" fill="#FFEFF3"/>
<path d="M33.8759 29.2138H26.6202C26.4131 29.2138 26.2452 29.3816 26.2452 29.5888C26.2452 29.7959 26.4131 29.9638 26.6202 29.9638H33.8759C34.083 29.9638 34.2509 29.7959 34.2509 29.5888C34.2509 29.3816 34.083 29.2138 33.8759 29.2138Z" fill="#FFEFF3"/>
<path d="M42.3712 20.0565H25.1804C23.8412 20.0565 22.7516 21.1461 22.7516 22.4853V30.8543C22.7516 32.1935 23.8412 33.2831 25.1804 33.2831H25.2671L24.7802 35.9868C24.7343 36.2416 24.8565 36.4953 25.0843 36.6183C25.311 36.7406 25.5904 36.7049 25.7791 36.5258L29.1111 33.3629C29.1653 33.3114 29.2364 33.283 29.3112 33.283H42.3712C43.7104 33.283 44.8 32.1935 44.8 30.8543V22.4853C44.8 21.1461 43.7104 20.0565 42.3712 20.0565V20.0565ZM44.05 30.8543C44.05 31.78 43.2969 32.5331 42.3712 32.5331H29.3112C29.0435 32.5331 28.789 32.6346 28.5948 32.819L25.601 35.6608L26.0244 33.3101C26.0974 32.905 25.7857 32.5331 25.3748 32.5331H25.1804C24.2547 32.5331 23.5017 31.78 23.5017 30.8543V22.4853C23.5017 21.5596 24.2548 20.8065 25.1804 20.8065H42.3712C43.2969 20.8065 44.05 21.5596 44.05 22.4853V30.8543Z" fill="#F65D88"/>
<path d="M40.8734 34.2861C40.6662 34.2861 40.4984 34.454 40.4984 34.6611V38.1076C40.4984 39.0333 39.7453 39.7864 38.8196 39.7864H25.7595C25.4917 39.7864 25.2373 39.8879 25.0431 40.0723L22.0494 42.9141L22.4727 40.5636C22.5456 40.1592 22.235 39.7864 21.8231 39.7864H21.6288C20.7031 39.7864 19.95 39.0333 19.95 38.1076V29.7386C19.95 28.8798 20.5926 28.1624 21.4448 28.0698C21.6507 28.0474 21.7994 27.8624 21.7771 27.6564C21.7547 27.4506 21.5701 27.3015 21.3637 27.3241C20.1302 27.4583 19.2 28.4962 19.2 29.7386V38.1076C19.2 39.4468 20.2896 40.5364 21.6288 40.5364H21.7155L21.2286 43.2402C21.1827 43.495 21.3049 43.7487 21.5328 43.8716C21.7595 43.9939 22.0389 43.9582 22.2274 43.7791L25.5595 40.6162C25.6137 40.5647 25.6848 40.5363 25.7596 40.5363H38.8196C40.1588 40.5363 41.2484 39.4468 41.2484 38.1076V34.6611C41.2484 34.454 41.0805 34.2861 40.8734 34.2861V34.2861Z" fill="#F65D88"/>
</g>
<defs>
<clipPath id="clip0_1_145">
<rect width="25.6" height="25.6" fill="white" transform="translate(19.2 19.2)"/>
</clipPath>
</defs>
</svg>
