<svg width="64" height="64" viewBox="0 0 64 64" fill="none" xmlns="http://www.w3.org/2000/svg">
<circle cx="32" cy="32" r="32" fill="#FEF5EC"/>
<path d="M40.6033 40.6034C40.6033 39.6764 41.3549 38.9247 42.282 38.9247H44.8L44.7979 38.0854C44.0328 37.0664 42.8154 36.4067 41.4426 36.4067C40.1479 36.4067 38.9926 36.9942 38.2237 37.9163C37.9094 38.2931 37.4406 38.5051 36.95 38.5051H21.718C20.5593 38.5051 19.6197 39.4447 19.6197 40.6034C19.6197 41.7621 20.5593 42.7018 21.718 42.7018H36.95C37.4406 42.7018 37.9094 42.9137 38.2237 43.2906C38.9926 44.2126 40.1479 44.8001 41.4426 44.8001C42.8154 44.8001 44.0328 44.1404 44.7979 43.1215L44.8 42.2821H42.282C41.3549 42.2821 40.6033 41.5305 40.6033 40.6034Z" fill="#F4A45D"/>
<path d="M40.6033 35.6449V33.8885H28.8524V37.6656H36.95C37.1972 37.6656 37.4268 37.5607 37.5791 37.3781C37.7671 37.1528 37.9765 36.9522 38.1964 36.7658C37.8859 36.6429 37.6656 36.3411 37.6656 35.9869C37.6656 35.5232 38.0412 35.1476 38.5049 35.1476C38.9686 35.1476 39.3443 35.5232 39.3443 35.9869C39.3443 36.0016 39.3409 36.015 39.3401 36.0293C39.74 35.8451 40.1651 35.7192 40.6033 35.6449V35.6449ZM30.5311 37.2459H29.6918V36.4066H30.5311V37.2459ZM30.5311 35.5672H29.6918V34.7279H30.5311V35.5672ZM35.1475 36.8263C34.6838 36.8263 34.3082 36.4506 34.3082 35.9869C34.3082 35.5232 34.6838 35.1476 35.1475 35.1476C35.6113 35.1476 35.9869 35.5232 35.9869 35.9869C35.9869 36.4506 35.6113 36.8263 35.1475 36.8263Z" fill="#F4A45D"/>
<path d="M21.0982 26.9005C21.1733 27.1355 21.2723 27.3731 21.3936 27.6081L21.5002 27.8146L20.9773 28.6938L22.2963 30.0128L23.176 29.4899L23.3829 29.5973C23.617 29.7182 23.8546 29.8177 24.0892 29.8928L24.3108 29.9633L24.5621 30.9508H26.4276L26.679 29.9629L26.9006 29.8924C27.1352 29.8172 27.3727 29.7178 27.6069 29.5969L27.8138 29.4895L28.5251 29.9125H28.7933L30.0124 28.6938L29.4895 27.8146L29.5961 27.6081C29.7174 27.3731 29.8164 27.1355 29.8916 26.9005L29.9625 26.6789L30.9508 26.428V24.5625L29.9629 24.3116L29.892 24.09C29.8169 23.855 29.7178 23.6174 29.5965 23.3824L29.4899 23.1759L30.0128 22.2967L28.6938 20.9777L27.8142 21.5006L27.6073 21.3932C27.3731 21.2723 27.1356 21.1728 26.901 21.0977L26.6794 21.0272L26.428 20.0393H24.5626L24.3112 21.0272L24.0892 21.0977C23.8546 21.1728 23.617 21.2723 23.3829 21.3932L23.176 21.5006L22.2968 20.9777L20.9777 22.2967L21.5006 23.1759L21.394 23.3824C21.2728 23.6174 21.1737 23.855 21.0986 24.09L21.0272 24.3116L20.0393 24.5621V26.4276L21.0272 26.6785L21.0982 26.9005ZM25.4951 22.1377C27.3492 22.1377 28.8525 23.6409 28.8525 25.495C28.8525 27.3492 27.3492 28.8524 25.4951 28.8524C23.641 28.8524 22.1377 27.3492 22.1377 25.495C22.1377 23.6409 23.641 22.1377 25.4951 22.1377Z" fill="#F4A45D"/>
<path d="M40.6033 28.8526H31.0402L28.8524 31.0404V33.0493H40.6033V28.8526ZM30.9508 31.7903C30.4871 31.7903 30.1115 31.4147 30.1115 30.951C30.1115 30.4872 30.4871 30.1116 30.9508 30.1116C31.4145 30.1116 31.7902 30.4872 31.7902 30.951C31.7902 31.4147 31.4145 31.7903 30.9508 31.7903ZM34.3082 31.7903C33.8444 31.7903 33.4688 31.4147 33.4688 30.951C33.4688 30.4872 33.8444 30.1116 34.3082 30.1116C34.7719 30.1116 35.1475 30.4872 35.1475 30.951C35.1475 31.4147 34.7719 31.7903 34.3082 31.7903ZM39.7639 32.21H38.9246V31.3706H39.7639V32.21ZM39.7639 30.5313H38.9246V29.6919H39.7639V30.5313Z" fill="#F4A45D"/>
<path d="M31.7901 27.0803L30.6142 27.3795C30.5643 27.5129 30.5085 27.6477 30.4464 27.7807L30.5844 28.0132H40.6033V24.2361C40.6033 24.0045 40.4148 23.8165 40.1836 23.8165H31.4229L31.7901 23.9101V27.0803ZM38.5049 25.0755C38.9686 25.0755 39.3442 25.4511 39.3442 25.9148C39.3442 26.3786 38.9686 26.7542 38.5049 26.7542C38.0412 26.7542 37.6655 26.3786 37.6655 25.9148C37.6655 25.4511 38.0412 25.0755 38.5049 25.0755ZM35.1475 25.0755C35.6113 25.0755 35.9869 25.4511 35.9869 25.9148C35.9869 26.3786 35.6113 26.7542 35.1475 26.7542C34.6838 26.7542 34.3082 26.3786 34.3082 25.9148C34.3082 25.4511 34.6838 25.0755 35.1475 25.0755Z" fill="#F4A45D"/>
<path d="M25.4951 27.1738C26.4222 27.1738 27.1737 26.4223 27.1737 25.4952C27.1737 24.568 26.4222 23.8165 25.4951 23.8165C24.5679 23.8165 23.8164 24.568 23.8164 25.4952C23.8164 26.4223 24.5679 27.1738 25.4951 27.1738Z" fill="#F4A45D"/>
<path d="M22.5574 34.728C21.8632 34.728 21.2983 35.2929 21.2983 35.987C21.2983 36.6812 21.8632 37.246 22.5574 37.246C23.1038 37.246 23.5654 36.8939 23.7392 36.4067H28.0131V35.5673H23.7392C23.5654 35.0801 23.1038 34.728 22.5574 34.728Z" fill="#F4A45D"/>
<path d="M21.6408 33.469H28.0131V32.6296H21.6408C21.4671 32.1424 21.0054 31.7903 20.459 31.7903C19.7649 31.7903 19.2 32.3552 19.2 33.0493C19.2 33.7434 19.7649 34.3083 20.459 34.3083C21.0054 34.3083 21.4671 33.9562 21.6408 33.469V33.469Z" fill="#F4A45D"/>
<path d="M38.5049 21.6409V22.9771H39.3442V21.6409C39.8315 21.4671 40.1836 21.0055 40.1836 20.4591C40.1836 19.765 39.6187 19.2001 38.9246 19.2001C38.2304 19.2001 37.6656 19.765 37.6656 20.4591C37.6656 21.0055 38.0177 21.4671 38.5049 21.6409Z" fill="#F4A45D"/>
<path d="M34.3082 21.6409V22.9771H35.1475V21.6409C35.6348 21.4671 35.9869 21.0055 35.9869 20.4591C35.9869 19.765 35.422 19.2001 34.7279 19.2001C34.0337 19.2001 33.4688 19.765 33.4688 20.4591C33.4688 21.0055 33.8209 21.4671 34.3082 21.6409Z" fill="#F4A45D"/>
</svg>
